<?xml version="1.0" standalone="no"?>
<!DOCTYPE svg PUBLIC "-//W3C//DTD SVG 20010904//EN"
 "http://www.w3.org/TR/2001/REC-SVG-20010904/DTD/svg10.dtd">
<svg version="1.0" xmlns="http://www.w3.org/2000/svg"
 width="3544.000000pt" height="3544.000000pt" viewBox="0 0 3544.000000 3544.000000"
 preserveAspectRatio="xMidYMid meet">
<metadata>
Created by potrace 1.11, written by Peter Selinger 2001-2013
</metadata>
<g transform="translate(0.000000,3544.000000) scale(0.100000,-0.100000)"
fill="#000000" stroke="none">
<path d="M25527 31084 c-1 -1 -77 -5 -168 -8 -91 -4 -174 -8 -185 -10 -10 -2
-59 -7 -109 -11 -49 -4 -92 -8 -95 -10 -3 -1 -32 -6 -65 -10 -156 -17 -402
-66 -605 -120 -52 -14 -102 -27 -110 -30 -169 -44 -580 -201 -788 -302 -76
-36 -148 -69 -160 -74 -13 -5 -103 -12 -200 -14 -98 -3 -235 -8 -307 -10 -71
-3 -213 -7 -315 -10 -102 -3 -239 -7 -305 -10 -66 -2 -208 -7 -315 -10 -107
-4 -240 -8 -295 -10 -55 -2 -201 -6 -325 -10 -193 -6 -365 -12 -393 -14 -7 -1
-5 -26 14 -119 6 -29 12 -65 14 -80 2 -15 8 -49 14 -76 l9 -50 -136 -265
c-251 -493 -576 -1151 -722 -1466 -15 -33 -53 -112 -83 -175 -48 -101 -81
-173 -197 -425 -15 -33 -37 -80 -48 -105 -11 -25 -52 -117 -92 -205 -40 -88
-122 -272 -182 -410 -60 -137 -116 -263 -123 -280 -98 -216 -375 -887 -584
-1410 -95 -236 -176 -439 -181 -450 -5 -11 -51 -130 -104 -265 -99 -257 -160
-414 -219 -565 -149 -382 -209 -533 -216 -550 -24 -54 -71 -181 -71 -192 0 -7
-4 -13 -10 -13 -5 0 -10 -6 -10 -13 0 -13 -280 -717 -410 -1032 -34 -82 -64
-159 -67 -170 -3 -11 -10 -25 -14 -31 -5 -6 -15 -28 -23 -50 -23 -63 -208
-507 -245 -586 -11 -26 -21 -53 -21 -60 0 -8 -4 -18 -9 -23 -5 -6 -39 -82 -76
-170 -72 -170 -380 -883 -422 -975 -14 -30 -59 -131 -100 -225 -41 -93 -85
-192 -98 -220 -20 -42 -62 -137 -120 -270 -7 -16 -23 -52 -35 -80 -12 -27 -51
-117 -87 -200 -35 -82 -76 -175 -90 -205 -14 -30 -33 -75 -43 -100 -10 -25
-33 -79 -52 -120 -19 -41 -97 -220 -174 -397 -76 -176 -141 -319 -143 -317 -2
2 -12 25 -22 51 -9 27 -122 307 -249 623 -128 316 -268 665 -312 775 -43 110
-88 219 -99 242 -10 24 -19 46 -19 49 0 3 -6 20 -14 37 -8 18 -74 181 -146
362 -73 182 -138 344 -145 360 -7 17 -20 50 -30 75 -9 25 -23 59 -30 75 -8 17
-36 86 -63 155 -135 341 -606 1508 -618 1533 -8 15 -12 27 -10 27 4 0 -17 52
-54 135 -8 20 -180 448 -280 700 -28 72 -56 139 -61 150 -5 11 -52 128 -105
260 -53 132 -192 481 -310 775 -118 294 -219 544 -224 555 -5 11 -71 173 -146
360 -266 666 -605 1510 -614 1530 -5 11 -41 101 -81 200 -39 99 -77 194 -84
210 -7 17 -104 257 -215 535 -111 278 -208 519 -215 535 -7 17 -81 201 -165
410 -83 209 -167 416 -185 460 -18 44 -81 199 -139 345 l-106 265 5 165 c3 91
8 209 10 263 3 53 1 98 -3 99 -25 5 -3451 13 -3456 7 -2 -2 -7 -117 -10 -255
l-5 -252 120 -303 c66 -167 182 -461 259 -654 76 -192 193 -489 260 -660 67
-170 126 -319 131 -330 4 -11 40 -101 79 -200 39 -99 75 -189 80 -200 5 -11
59 -148 120 -305 62 -157 118 -298 125 -315 7 -16 36 -91 65 -165 29 -74 59
-151 67 -170 20 -47 24 -57 77 -192 50 -129 50 -113 2 -223 -23 -50 -79 -185
-221 -530 -75 -181 -143 -343 -150 -360 -7 -16 -57 -136 -110 -265 -53 -129
-103 -248 -110 -265 -11 -25 -154 -369 -570 -1370 -21 -49 -48 -115 -60 -145
-47 -114 -127 -306 -140 -335 -7 -16 -68 -163 -135 -325 -67 -162 -128 -308
-135 -325 -14 -30 -203 -486 -270 -650 -20 -49 -43 -103 -50 -120 -8 -16 -64
-151 -125 -300 -61 -148 -115 -279 -120 -290 -8 -19 -85 -204 -152 -365 -17
-41 -36 -88 -43 -105 -7 -16 -25 -59 -39 -95 -31 -75 -36 -88 -65 -152 -12
-26 -21 -50 -21 -53 0 -2 -11 -29 -25 -59 -14 -30 -25 -58 -25 -61 0 -3 -8
-25 -19 -48 -16 -36 -76 -180 -101 -242 -4 -11 -17 -40 -28 -65 -11 -25 -68
-162 -127 -305 -228 -551 -507 -1221 -520 -1250 -7 -16 -34 -82 -60 -145 -26
-63 -53 -128 -60 -145 -8 -16 -79 -190 -160 -385 -80 -195 -157 -380 -170
-410 -14 -30 -93 -219 -175 -420 -83 -201 -155 -374 -160 -385 -5 -11 -39 -92
-75 -180 -37 -88 -72 -173 -80 -190 -7 -16 -50 -120 -95 -230 -108 -261 -179
-433 -195 -470 -8 -16 -35 -82 -60 -145 -26 -63 -53 -128 -60 -145 -7 -16 -37
-86 -65 -155 -28 -69 -55 -134 -60 -145 -46 -101 -310 -745 -310 -756 0 -4 64
-6 143 -3 364 10 460 14 462 16 1 2 41 100 89 218 48 118 93 229 101 245 13
30 79 190 182 445 30 74 61 149 68 165 8 17 44 104 80 195 37 91 74 181 82
200 8 19 18 44 23 55 4 11 17 43 28 70 12 28 84 203 161 390 76 187 189 464
251 615 62 151 144 352 182 445 39 94 76 184 83 200 7 17 48 116 90 220 43
105 83 204 91 220 7 17 43 104 79 195 37 91 76 184 86 207 10 23 19 45 19 49
0 4 8 26 18 48 11 23 38 88 62 146 23 58 48 119 55 135 8 17 28 66 45 110 17
44 38 94 45 110 12 26 198 481 332 810 25 61 50 121 56 135 6 14 11 27 11 30
1 4 32 78 81 195 7 17 59 143 115 280 56 138 109 266 117 285 19 44 18 43 98
240 37 91 78 190 90 220 27 64 59 141 185 450 50 124 95 234 100 245 5 11 52
126 105 255 53 129 107 260 120 291 14 31 25 60 25 63 0 4 9 26 19 49 16 36
94 224 176 427 71 175 549 1340 560 1365 7 17 32 77 55 135 23 58 48 119 55
135 14 29 35 82 170 416 35 85 72 175 83 200 21 46 178 431 208 509 9 25 20
50 24 55 3 6 35 83 71 172 35 90 67 163 71 163 4 0 10 -10 14 -22 7 -24 248
-638 264 -673 5 -11 67 -168 139 -350 71 -181 186 -472 254 -645 69 -173 142
-358 162 -410 20 -52 43 -108 50 -125 7 -16 45 -113 85 -215 40 -102 78 -198
85 -215 7 -16 50 -124 95 -240 45 -115 86 -219 91 -230 4 -11 22 -56 39 -100
17 -44 37 -94 45 -112 8 -17 15 -37 15 -45 0 -8 4 -18 8 -24 5 -5 23 -45 40
-89 17 -44 82 -210 145 -370 64 -159 175 -441 247 -625 73 -184 138 -348 145
-365 7 -16 41 -102 75 -190 34 -88 68 -175 76 -192 8 -18 21 -50 28 -70 8 -21
20 -51 27 -68 7 -16 13 -32 13 -35 2 -6 123 -313 136 -345 5 -11 19 -45 30
-75 12 -30 26 -64 31 -75 5 -11 51 -128 103 -260 52 -132 151 -384 221 -560
70 -176 151 -381 180 -455 29 -74 100 -254 158 -400 57 -146 159 -404 226
-575 68 -170 127 -319 132 -330 4 -11 69 -173 143 -360 73 -187 163 -414 199
-505 286 -724 283 -714 484 -1225 30 -77 61 -153 68 -170 7 -16 40 -100 74
-185 33 -85 100 -256 149 -380 49 -124 111 -280 137 -347 l48 -122 -53 -123
c-29 -68 -63 -145 -75 -173 -40 -89 -120 -273 -280 -640 -86 -198 -163 -373
-170 -390 -8 -16 -84 -192 -170 -390 -86 -198 -165 -378 -175 -400 -10 -22
-48 -110 -85 -195 -37 -85 -75 -173 -85 -195 -15 -35 -151 -346 -667 -1530
-58 -132 -113 -258 -123 -280 -10 -22 -32 -74 -50 -115 -34 -80 -93 -215 -115
-265 -7 -16 -32 -73 -55 -125 -23 -52 -48 -108 -55 -125 -31 -70 -287 -660
-333 -765 -27 -63 -61 -140 -75 -170 -14 -30 -44 -100 -67 -154 -23 -54 -45
-106 -50 -115 -4 -9 -29 -65 -55 -126 -26 -60 -55 -128 -65 -150 -30 -66 -54
-122 -140 -320 -45 -104 -90 -207 -100 -230 -10 -22 -95 -218 -190 -435 -95
-217 -180 -413 -190 -435 -10 -22 -39 -89 -65 -150 -78 -181 -98 -217 -203
-356 -211 -283 -397 -486 -643 -704 -175 -156 -462 -330 -682 -415 -143 -56
-333 -108 -457 -125 -25 -3 -56 -8 -70 -10 -193 -29 -471 -21 -645 19 -169 38
-315 85 -460 148 -100 44 -251 123 -276 144 -8 8 -19 14 -22 14 -4 0 -37 21
-75 47 -189 130 -291 221 -632 563 -223 223 -389 381 -445 423 -154 115 -334
193 -495 213 -58 8 -215 7 -260 0 -240 -41 -370 -105 -463 -227 -92 -121 -95
-337 -7 -554 137 -339 369 -619 675 -817 153 -98 531 -298 690 -363 145 -60
397 -138 514 -160 14 -3 37 -7 51 -10 59 -13 118 -24 160 -30 25 -3 56 -8 70
-10 58 -11 168 -24 245 -30 22 -2 81 -7 130 -12 176 -16 817 -8 910 11 12 2
52 7 90 11 38 3 72 8 75 10 3 1 28 6 55 9 149 20 392 82 590 150 239 82 534
236 788 411 76 52 292 219 337 260 19 18 64 58 100 90 149 133 343 338 498
528 94 114 97 117 137 117 l41 0 59 137 c33 75 67 146 76 157 114 148 398 617
589 971 57 106 327 646 380 760 23 50 54 117 70 150 15 33 40 85 53 115 14 30
44 95 66 143 23 49 41 90 41 92 0 2 15 37 34 78 19 40 78 177 131 303 53 126
103 243 110 259 20 46 101 244 125 305 12 30 27 66 33 80 6 14 11 27 12 30 1
3 5 14 10 25 37 94 93 233 138 350 143 363 229 583 243 612 8 17 14 34 14 38
0 3 8 25 18 48 11 23 29 69 42 102 12 33 29 75 37 92 7 18 24 61 37 95 33 87
554 1398 566 1423 5 11 90 223 188 470 99 248 205 513 237 590 128 315 197
482 210 510 7 17 58 138 113 270 144 345 431 1016 498 1163 13 29 35 79 49
112 14 33 36 83 49 112 13 29 45 100 71 158 26 58 60 133 76 168 16 35 29 65
29 67 0 3 12 30 27 62 14 32 72 162 128 289 94 214 103 231 121 221 10 -6 21
-13 24 -16 3 -3 43 -35 90 -71 47 -35 134 -112 194 -170 106 -103 140 -141
437 -500 127 -153 283 -338 437 -520 59 -69 243 -281 257 -296 5 -6 46 -50 90
-99 139 -154 215 -234 410 -433 105 -107 195 -200 201 -206 302 -295 507 -462
839 -681 670 -444 1517 -800 2215 -931 8 -2 31 -6 50 -9 19 -4 44 -9 55 -10
11 -2 47 -8 80 -14 33 -6 83 -13 110 -16 28 -4 61 -8 75 -10 14 -2 57 -7 95
-11 39 -3 81 -8 95 -10 137 -16 580 -22 810 -10 195 10 226 13 380 31 19 2 60
7 90 10 30 3 93 13 140 20 47 8 103 17 125 21 22 3 58 9 80 14 22 5 56 12 75
15 19 3 55 11 80 16 25 6 52 12 60 14 303 67 681 193 994 330 122 53 360 169
436 212 19 11 62 35 95 53 100 55 311 188 439 277 113 77 376 277 421 320 11
10 34 29 50 42 124 96 446 405 630 606 50 54 97 106 106 116 9 9 73 84 141
165 472 566 862 1216 1127 1879 56 138 150 407 167 475 2 8 19 74 39 145 38
138 99 434 109 525 4 30 11 82 16 115 24 157 34 671 17 840 -3 33 -9 87 -12
120 -10 93 -54 351 -76 440 -10 44 -21 89 -23 100 -6 27 -44 167 -62 232 -9
29 -15 55 -16 57 0 10 -127 383 -156 462 -111 300 -307 718 -482 1029 -102
181 -385 634 -410 655 -4 3 -22 28 -40 55 -103 153 -499 661 -550 705 -3 3
-66 77 -140 165 -144 172 -155 184 -196 230 -14 17 -43 50 -63 75 -20 24 -43
52 -51 61 -8 9 -31 35 -50 59 -19 23 -39 47 -45 54 -5 6 -26 29 -45 51 -19 23
-55 65 -80 95 -40 48 -155 183 -275 325 -24 28 -197 232 -386 455 -188 223
-395 466 -458 540 -64 74 -123 144 -132 155 -9 11 -43 52 -76 90 -127 151
-423 529 -423 541 0 2 -9 14 -20 26 -11 12 -32 40 -47 62 -15 23 -30 43 -33
46 -18 18 -232 337 -312 465 -285 457 -509 935 -583 1245 -28 117 -39 183 -55
312 -9 73 -6 461 3 508 3 14 9 48 12 75 16 117 21 140 56 280 36 147 106 353
169 500 43 98 147 316 171 355 5 8 34 60 65 115 239 422 535 783 874 1066 375
313 849 542 1330 643 73 15 85 17 160 30 75 12 166 22 285 31 76 6 322 6 395
0 104 -8 203 -17 219 -20 9 -1 39 -6 66 -9 71 -10 178 -29 280 -51 242 -50
584 -165 910 -305 92 -39 427 -210 524 -267 529 -310 906 -670 1175 -1122 251
-424 415 -934 461 -1436 3 -38 8 -84 10 -101 10 -74 18 -328 18 -554 0 -288
-8 -487 -29 -700 -4 -36 -8 -81 -9 -100 -2 -39 -16 -166 -21 -192 -1 -9 -6
-48 -9 -85 -4 -37 -9 -71 -11 -74 -2 -3 -6 -28 -9 -56 -3 -27 -7 -58 -9 -69
-2 -10 -7 -44 -11 -74 -4 -30 -9 -64 -11 -75 -2 -10 -6 -37 -9 -60 -3 -22 -10
-62 -15 -90 -5 -27 -11 -66 -14 -85 -8 -51 -35 -206 -62 -355 -2 -11 -11 -60
-20 -110 -8 -49 -17 -92 -19 -95 -2 -4 -7 -29 -11 -56 -3 -27 -8 -52 -10 -55
-2 -3 -6 -21 -9 -40 -7 -40 -29 -146 -51 -244 -8 -38 -17 -81 -20 -95 -8 -44
-76 -341 -88 -390 l-12 -48 50 -26 c28 -14 74 -39 101 -54 111 -63 215 -115
218 -111 2 2 37 65 77 139 40 74 84 155 98 180 13 25 43 79 65 120 22 41 95
176 162 300 166 305 432 797 485 895 23 44 54 100 68 125 13 25 40 74 60 110
19 36 47 88 62 115 15 28 74 136 130 240 114 209 200 368 250 460 18 33 48 89
67 125 81 149 150 277 191 350 13 25 41 77 62 115 51 95 115 213 199 368 15
28 71 131 123 227 53 96 115 211 138 255 24 44 50 93 60 110 79 142 111 206
106 214 -3 5 -33 23 -67 41 -34 17 -75 39 -93 49 -121 68 -184 101 -195 101
-6 0 -28 -11 -49 -24 -76 -48 -244 -95 -322 -89 -85 5 -161 20 -215 43 -124
51 -280 144 -390 233 -89 71 -212 205 -281 305 -223 321 -507 678 -763 957
-36 38 -83 90 -105 114 -81 88 -323 327 -375 371 -146 122 -428 321 -617 435
-446 268 -919 481 -1364 614 -58 18 -118 36 -135 41 -40 12 -281 68 -325 75
-19 3 -42 8 -50 10 -8 2 -31 6 -50 9 -19 3 -44 7 -55 10 -11 2 -42 7 -70 10
-109 16 -121 17 -141 21 -12 2 -61 6 -110 10 -49 4 -97 9 -108 11 -27 5 -465
21 -469 18z m-5716 -5045 c-27 -108 -51 -216 -54 -240 -3 -24 -8 -51 -11 -59
-2 -8 -7 -33 -10 -55 -3 -22 -9 -71 -15 -110 -9 -62 -13 -101 -26 -210 -32
-280 -26 -907 11 -1097 3 -15 7 -42 9 -60 3 -32 30 -191 40 -235 3 -13 7 -33
10 -45 3 -13 7 -32 9 -43 86 -397 307 -944 525 -1300 69 -114 112 -178 273
-408 44 -62 428 -575 455 -607 11 -14 74 -90 139 -170 65 -80 126 -154 136
-165 39 -47 345 -422 363 -446 11 -15 81 -100 155 -190 74 -90 142 -173 150
-183 8 -10 27 -33 41 -50 15 -17 90 -110 169 -206 78 -96 161 -197 183 -223
23 -27 53 -64 67 -82 25 -32 266 -328 301 -369 16 -20 314 -384 369 -452 316
-390 431 -547 582 -789 206 -331 376 -686 506 -1055 64 -181 88 -276 110 -440
9 -70 9 -394 0 -480 -11 -105 -28 -205 -59 -345 -42 -192 -148 -511 -225 -682
-13 -28 -24 -55 -24 -59 0 -14 -196 -415 -251 -514 -95 -171 -148 -263 -192
-335 -28 -44 -59 -96 -71 -115 -11 -19 -23 -37 -26 -40 -3 -3 -23 -32 -44 -65
-104 -161 -280 -393 -408 -539 -83 -95 -309 -320 -383 -381 -33 -28 -71 -60
-85 -73 -37 -33 -223 -162 -316 -219 -95 -59 -281 -151 -379 -188 -129 -49
-304 -100 -415 -121 -14 -2 -48 -9 -76 -15 -73 -14 -84 -16 -289 -44 -152 -21
-563 -21 -674 0 -9 1 -41 6 -72 9 -58 7 -66 8 -154 26 -27 5 -62 12 -76 14
-42 7 -216 55 -299 83 -219 73 -461 186 -670 311 -19 12 -55 33 -80 47 -51 29
-38 21 -219 139 -119 78 -277 187 -321 223 -8 6 -53 42 -100 79 -364 289 -674
622 -918 984 -65 98 -182 288 -182 296 0 3 -12 23 -27 47 -26 42 -233 450
-233 461 0 3 -11 29 -24 58 -102 230 -234 609 -281 808 -2 8 -8 35 -15 60 -12
47 -28 117 -36 160 -3 14 -14 66 -24 115 -11 50 -26 133 -34 185 -8 52 -17
113 -21 135 -3 22 -8 56 -11 75 -2 19 -6 51 -9 70 -2 19 -7 58 -10 85 -3 28
-7 66 -10 85 -2 19 -7 75 -10 124 -4 50 -8 97 -10 106 -8 40 -18 367 -18 570
0 206 8 465 18 565 2 22 7 76 10 120 3 44 9 89 12 100 5 19 175 413 233 540
15 33 31 71 35 85 4 14 11 30 15 35 4 6 20 39 35 75 15 36 35 83 45 105 10 22
102 234 205 470 103 237 195 448 205 470 10 22 39 90 65 150 26 61 61 139 77
175 17 36 34 74 38 86 5 12 86 198 180 415 227 520 368 843 598 1369 104 239
211 485 237 545 52 120 63 145 124 281 23 51 41 94 41 97 0 3 15 38 34 79 19
40 54 120 79 178 25 58 92 213 150 345 58 132 175 402 262 600 158 364 167
384 203 465 12 25 60 135 107 245 48 110 93 214 100 230 8 17 48 109 90 205
115 265 139 319 142 317 1 -2 -20 -91 -46 -198z"/>
</g>
</svg>
